<svg width="23" height="16" viewBox="0 0 23 16" fill="none" xmlns="http://www.w3.org/2000/svg">
<path fill-rule="evenodd" clip-rule="evenodd" d="M0.75 5C0.75 2.37665 2.87665 0.25 5.5 0.25H17.5C20.1234 0.25 22.25 2.37665 22.25 5V11C22.25 13.6234 20.1234 15.75 17.5 15.75H5.5C2.87665 15.75 0.75 13.6234 0.75 11V5ZM2.33697 4.25H20.663C20.3245 2.81665 19.0368 1.75 17.5 1.75H5.5C3.96321 1.75 2.67555 2.81665 2.33697 4.25ZM20.75 5.75H2.25V11C2.25 12.7949 3.70507 14.25 5.5 14.25H17.5C19.2949 14.25 20.75 12.7949 20.75 11V5.75ZM12.75 11C12.75 10.5858 13.0858 10.25 13.5 10.25H17.5C17.9142 10.25 18.25 10.5858 18.25 11C18.25 11.4142 17.9142 11.75 17.5 11.75H13.5C13.0858 11.75 12.75 11.4142 12.75 11Z" fill="white"/>
</svg>
