<svg width="20" height="21" viewBox="0 0 20 21" fill="none" xmlns="http://www.w3.org/2000/svg">
<path d="M11.9511 1.71645L12.1334 1.88645L12.8522 2.6052C13.0991 2.85092 13.4229 3.00242 13.7674 3.03646L13.9161 3.04378H14.9441C16.5479 3.04378 17.8594 4.29795 17.951 5.87883L17.9561 6.05578V7.08278C17.9561 7.43258 18.0767 7.76886 18.2943 8.03624L18.3934 8.14645L19.1122 8.86525C20.2437 9.99165 20.2943 11.7929 19.2577 12.98L19.1224 13.1251L18.3941 13.8535C18.1491 14.099 17.9975 14.4231 17.9634 14.7672L17.9561 14.9158V15.9448C17.9561 17.5485 16.702 18.8591 15.1211 18.9507L14.9441 18.9558H13.9161C13.5676 18.9558 13.2309 19.0769 12.9633 19.2951L12.8531 19.3945L12.1352 20.1113C11.01 21.2442 9.20745 21.2944 8.01992 20.2574L7.86577 20.1131L7.14866 19.396C6.90027 19.1494 6.57583 18.9973 6.23232 18.9631L6.0841 18.9558H5.0551C3.45197 18.9558 2.14083 17.7023 2.04922 16.1217L2.0441 15.9448V14.9158C2.0441 14.5678 1.92281 14.2308 1.70472 13.9637L1.60541 13.8537L0.888277 13.1356C-0.244298 12.0094 -0.294536 10.2068 0.742484 9.02044L0.877774 8.87545L1.60389 8.14834C1.85084 7.89963 2.00267 7.57581 2.03676 7.23146L2.0441 7.08278V6.05578L2.04922 5.87885C2.13744 4.35668 3.3566 3.13715 4.87824 3.0489L5.0551 3.04378H6.0841C6.43259 3.04378 6.76936 2.9229 7.0364 2.70572L7.14641 2.60682L7.86457 1.88765C8.99094 0.756177 10.7934 0.706363 11.9511 1.71645ZM9.04152 2.84256L8.9268 2.94674L8.20555 3.66899C7.6883 4.18258 7.00418 4.48966 6.28193 4.53727L6.0841 4.54378H5.0551C4.26754 4.54378 3.61982 5.14793 3.55028 5.91821L3.5441 6.05578V7.08278C3.5441 7.81195 3.2795 8.5131 2.80221 9.06116L2.6668 9.20674L1.93963 9.93491C1.38782 10.4892 1.35569 11.3649 1.84334 11.9589L1.9478 12.0738L2.66706 12.7941C3.18147 13.3097 3.48976 13.995 3.53756 14.7178L3.5441 14.9158V15.9448C3.5441 16.7328 4.14781 17.3801 4.91762 17.4496L5.0551 17.4558H6.0841C6.81189 17.4558 7.51365 17.7207 8.06183 18.198L8.20743 18.3335L8.93075 19.0568C9.48896 19.6119 10.3649 19.6442 10.9584 19.1565L11.0731 19.0521L11.794 18.3322C12.3107 17.8179 12.9952 17.5101 13.7181 17.4623L13.9161 17.4558H14.9441C15.7328 17.4558 16.3804 16.8524 16.4499 16.0823L16.4561 15.9448V14.9158C16.4561 14.1869 16.7209 13.4839 17.1976 12.9383L17.3328 12.7935L18.0603 12.066C18.6121 11.511 18.644 10.6358 18.1571 10.0419L18.0528 9.92711L17.3309 9.20523C16.817 8.68765 16.5102 8.00422 16.4626 7.28094L16.4561 7.08278V6.05578C16.4561 5.26737 15.852 4.61951 15.0817 4.54996L14.9441 4.54378H13.9161C13.1869 4.54378 12.4849 4.27939 11.938 3.80243L11.7928 3.66711L11.1048 2.97734L11.065 2.94031C10.5107 2.38855 9.63484 2.35624 9.04152 2.84256ZM13.0965 13.0424C13.1665 13.1124 13.2265 13.1924 13.2665 13.2824C13.2965 13.3724 13.3165 13.4724 13.3165 13.5724C13.3165 13.6734 13.2965 13.7624 13.2665 13.8524C13.2265 13.9424 13.1665 14.0324 13.0965 14.1024C12.9565 14.2424 12.7665 14.3224 12.5665 14.3224C12.3665 14.3224 12.1765 14.2424 12.0365 14.1024C11.9665 14.0324 11.9165 13.9424 11.8765 13.8524C11.8365 13.7624 11.8165 13.6734 11.8165 13.5724C11.8165 13.4724 11.8365 13.3724 11.8765 13.2824C11.9165 13.1924 11.9665 13.1124 12.0365 13.0424C12.3165 12.7624 12.8165 12.7624 13.0965 13.0424ZM13.1001 7.89915C13.3664 8.16542 13.3906 8.58208 13.1728 8.87569L13.1001 8.95981L7.96013 14.0998C7.66724 14.3927 7.19237 14.3927 6.89947 14.0998C6.63321 13.8335 6.609 13.4169 6.82686 13.1233L6.89947 13.0392L12.0395 7.89915C12.3324 7.60626 12.8072 7.60626 13.1001 7.89915ZM7.9564 7.90278C8.09641 8.04178 8.1764 8.23278 8.1764 8.43278C8.1764 8.53278 8.1664 8.62178 8.1264 8.71278C8.0864 8.80278 8.0264 8.88278 7.9564 8.96278C7.8864 9.03278 7.8064 9.08178 7.7164 9.12178C7.6264 9.16178 7.5264 9.18278 7.4264 9.18278C7.3264 9.18278 7.2364 9.16178 7.1464 9.12178C7.0564 9.08178 6.9664 9.03278 6.8964 8.96278C6.8264 8.88278 6.7764 8.80278 6.7364 8.71278C6.6964 8.62178 6.6764 8.53278 6.6764 8.43278C6.6764 8.33178 6.6964 8.23278 6.7364 8.14278C6.7764 8.05278 6.8264 7.96278 6.8964 7.90278C7.1864 7.62178 7.6764 7.62178 7.9564 7.90278Z" fill="#EA7C69"/>
</svg>
