<svg width="19" height="20" viewBox="0 0 19 20" fill="none" xmlns="http://www.w3.org/2000/svg">
<path d="M15 5.2C16.7 6.2 17.5 8 17.5 10C17.5 12.5 15 14.5 12.5 14.5H9.9L9.3 18.1C9.25325 18.3293 9.12758 18.5349 8.94486 18.6811C8.76214 18.8272 8.53395 18.9047 8.3 18.9H5.6C5.52501 18.9015 5.45064 18.8861 5.38239 18.855C5.31415 18.8239 5.25378 18.7778 5.20577 18.7202C5.15775 18.6626 5.12331 18.5949 5.105 18.5222C5.08669 18.4494 5.08498 18.3735 5.1 18.3L5.3 16.9M7.5 11H10C12.5 11 15 8.5 15 6C15 3 13.1 1 10 1H4.5C4 1 3.5 1.5 3.5 2L1.5 16C1.5 16.5 2 17 2.5 17H5.3L6.5 12C6.6 11.4 6.9 11 7.5 11Z" stroke="#ABBBC2" stroke-width="1.5" stroke-linecap="round" stroke-linejoin="round"/>
</svg>
