<svg id="Capa_1" enable-background="new 0 0 512 512" height="512" viewBox="0 0 512 512" width="512" xmlns="http://www.w3.org/2000/svg" xmlns:xlink="http://www.w3.org/1999/xlink"><linearGradient id="SVGID_1_" gradientUnits="userSpaceOnUse" x1="278.786" x2="278.786" y1="378.311" y2="118.198"><stop offset="0" stop-color="#addcff"/><stop offset=".5028" stop-color="#eaf6ff"/><stop offset="1" stop-color="#eaf6ff"/></linearGradient><linearGradient id="SVGID_2_" gradientUnits="userSpaceOnUse" x1="256" x2="256" y1="512" y2="0"><stop offset="0" stop-color="#5558ff"/><stop offset="1" stop-color="#00c0ff"/></linearGradient><g><g><g><path d="m415.203 127.075c-12.271-12.239-31.648-11.428-42.48 0l-85.752 85.459-38.613-38.364c-11.738-12.425-31.566-11.838-42.158-.557-12.323 11.646-12.091 31.349-.293 42.495l59.443 59.414c5.42 6.021 13.3 9.478 21.65 9.478s16.23-3.457 21.094-8.877l107.109-106.802c11.61-11.579 11.535-30.68 0-42.246zm-236.074 184.6-41.045 41.03c-5.859 5.859-5.859 15.352 0 21.211 5.859 5.86 15.352 5.859 21.211 0l41.045-41.03c5.859-5.859 5.859-15.352 0-21.211s-15.352-5.86-21.211 0z" fill="url(#SVGID_1_)"/></g></g><g><g><path d="m317 0c-107.402 0-195 87.599-195 195s87.598 195 195 195 195-87.599 195-195-87.598-195-195-195zm87.598 158.699-107.098 106.8c-2.7 3.001-6.6 4.501-10.5 4.501s-7.8-1.5-10.499-4.501l-60-60c-6.002-5.7-6.002-15.298 0-20.999 5.702-6 15.297-6 20.999 0l49.5 49.199 96.299-95.999c5.702-6 15.3-6 21.299 0 5.702 5.701 5.702 15.299 0 20.999zm-266.514 172.795c-5.859-5.859-15.352-5.859-21.211 0l-112.478 112.479c-5.859 5.859-5.859 15.352 0 21.211l42.422 42.422c5.86 5.859 15.352 5.859 21.211 0l112.479-112.479c5.859-5.859 5.859-15.352 0-21.211z" fill="url(#SVGID_2_)"/></g></g></g></svg>